<svg width="122" height="122" viewBox="0 0 122 122" fill="none" xmlns="http://www.w3.org/2000/svg">
<path d="M122 61C122 27.307 94.693 0 61 0C27.307 0 0 27.307 0 61C0 91.45 22.2936 116.686 51.4735 121.264V78.6471H35.9972V61H51.4735V47.5633C51.4735 32.2871 60.5639 23.8329 74.5034 23.8329C81.1872 23.8329 88.1736 25.0362 88.1736 25.0362V40.0432H80.4866C72.8998 40.0432 70.5598 44.7564 70.5598 49.5696V61H87.473L84.7662 78.6471H70.5598V121.264C99.7064 116.686 122 91.45 122 61Z" fill="#1877F2"/>
<path d="M84.7305 78.6463L87.4398 60.9991H70.5266V49.5688C70.5266 44.7555 72.8998 40.0423 80.4534 40.0423H88.1403V25.0354C88.1403 25.0354 81.1539 23.832 74.4701 23.832C60.533 23.832 51.4402 32.2886 51.4402 47.5625V60.9991H35.9639V78.6463H51.4402V121.263C54.5498 121.763 57.7237 121.999 60.9667 121.999C64.2097 121.999 67.3836 121.732 70.4932 121.263V78.6463H84.7305Z" fill="white"/>
</svg>
