<svg width="122" height="125" viewBox="0 0 122 125" fill="none" xmlns="http://www.w3.org/2000/svg">
<path d="M122 63.7035C122 58.5796 121.585 54.8405 120.686 50.9629H62.2451V74.0899H96.5487C95.8573 79.8373 92.1227 88.4927 83.8232 94.3088L83.7068 95.0831L102.185 109.415L103.465 109.543C115.222 98.6714 122 82.6761 122 63.7035" fill="#4285F4"/>
<path d="M62.2447 124.638C79.0506 124.638 93.1593 119.098 103.465 109.543L83.8228 94.3093C78.5667 97.9792 71.5121 100.541 62.2447 100.541C45.7845 100.541 31.8141 89.6703 26.8341 74.6445L26.1041 74.7066L6.89043 89.5939L6.63916 90.2932C16.8749 110.651 37.8999 124.638 62.2447 124.638Z" fill="#34A853"/>
<path d="M26.8342 74.644C25.5202 70.7665 24.7597 66.6116 24.7597 62.3187C24.7597 58.0253 25.5202 53.8709 26.7651 49.9933L26.7302 49.1675L7.27581 34.041L6.63929 34.3441C2.42066 42.7919 0 52.2784 0 62.3187C0 72.3589 2.42066 81.845 6.63929 90.2928L26.8342 74.644" fill="#FBBC05"/>
<path d="M62.2447 24.0965C73.9327 24.0965 81.8169 29.1512 86.3126 33.3754L103.879 16.2029C93.0906 6.16268 79.0506 0 62.2447 0C37.8999 0 16.8749 13.987 6.63916 34.3444L26.7649 49.9936C31.8141 34.9678 45.7845 24.0965 62.2447 24.0965" fill="#EB4335"/>
</svg>
